HIERARCHY
ROOT SpineBase
{
  OFFSET 0.000000 0.000000 0.000000
  CHANNELS 6 Xposition Yposition Zposition Zrotation Xrotation Yrotation
  JOINT SpineMid
  {
    OFFSET -0.000000 29.133665 0.000000
    CHANNELS 3 Zrotation Xrotation Yrotation
    JOINT SpineShoulder
    {
      OFFSET 0.114715 22.143114 -1.003974
      CHANNELS 3 Zrotation Xrotation Yrotation
      JOINT Neck
      {
        OFFSET 0.087512 7.400956 -0.646536
        CHANNELS 3 Zrotation Xrotation Yrotation
        JOINT Head
        {
          OFFSET -5.636742 7.565942 5.892942
          CHANNELS 3 Zrotation Xrotation Yrotation
          End Site
          {
            OFFSET 0 0 0
          }
        }
      }
      JOINT ShoulderLeft
      {
        OFFSET -9.415359 -9.573507 -12.784419
        CHANNELS 3 Zrotation Xrotation Yrotation
        JOINT ElbowLeft
        {
          OFFSET -5.440107 -26.508522 0.084450
          CHANNELS 3 Zrotation Xrotation Yrotation
          JOINT WristLeft
          {
            OFFSET -4.146715 -23.392687 7.142739
            CHANNELS 3 Zrotation Xrotation Yrotation
            JOINT HandLeft
            {
              OFFSET -0.658778 -3.665350 -3.018828
              CHANNELS 3 Zrotation Xrotation Yrotation
              JOINT HandTipLeft
              {
                OFFSET -0.269911 -5.232172 0.912229
                CHANNELS 3 Zrotation Xrotation Yrotation
                End Site
                {
                  OFFSET 0 0 0
                }
              }
              JOINT ThumbLeft
              {
                OFFSET -1.989596 0.456032 -0.043882
                CHANNELS 3 Zrotation Xrotation Yrotation
                End Site
                {
                  OFFSET 0 0 0
                }
              }
            }
          }
        }
      }
      JOINT ShoulderRight
      {
        OFFSET 2.489950 -3.749896 -9.144542
        CHANNELS 3 Zrotation Xrotation Yrotation
        JOINT ElbowRight
        {
          OFFSET -10.439312 -20.816481 -3.535121
          CHANNELS 3 Zrotation Xrotation Yrotation
          JOINT WristRight
          {
            OFFSET -5.315476 -18.812053 1.543517
            CHANNELS 3 Zrotation Xrotation Yrotation
            JOINT HandRight
            {
              OFFSET -1.001402 -7.371655 0.806484
              CHANNELS 3 Zrotation Xrotation Yrotation
              JOINT HandTipRight
              {
                OFFSET -3.914138 -6.523733 1.399527
                CHANNELS 3 Zrotation Xrotation Yrotation
                End Site
                {
                  OFFSET 0 0 0
                }
              }
              JOINT ThumbRight
              {
                OFFSET 5.051167 0.720022 0.646498
                CHANNELS 3 Zrotation Xrotation Yrotation
                End Site
                {
                  OFFSET 0 0 0
                }
              }
            }
          }
        }
      }
    }
  }
  JOINT HipLeft
  {
    OFFSET -4.952384 1.078317 -0.794867
    CHANNELS 3 Zrotation Xrotation Yrotation
    JOINT KneeLeft
    {
      OFFSET 12.166481 -28.815281 7.449778
      CHANNELS 3 Zrotation Xrotation Yrotation
      JOINT AnkleLeft
      {
        OFFSET 3.443989 -34.894534 5.000729
        CHANNELS 3 Zrotation Xrotation Yrotation
        JOINT FootLeft
        {
          OFFSET 0.449934 -4.037260 -9.109287
          CHANNELS 3 Zrotation Xrotation Yrotation
          End Site
          {
            OFFSET 0 0 0
          }
        }
      }
    }
  }
  JOINT HipRight
  {
    OFFSET 3.587444 1.423921 -5.260613
    CHANNELS 3 Zrotation Xrotation Yrotation
    JOINT KneeRight
    {
      OFFSET -7.849303 -32.629869 -1.310097
      CHANNELS 3 Zrotation Xrotation Yrotation
      JOINT AnkleRight
      {
        OFFSET 4.467053 -32.410569 0.191509
        CHANNELS 3 Zrotation Xrotation Yrotation
        JOINT FootRight
        {
          OFFSET 1.697612 -3.331045 -11.046013
          CHANNELS 3 Zrotation Xrotation Yrotation
          End Site
          {
            OFFSET 0 0 0
          }
        }
      }
    }
  }
}
MOTION
Frames: 12
Frame Time: 0.033333
73.906278 69.474145 277.842967 0.000000 0.000000 27.606489 -0.000000 0.000000 -27.606489 -0.000000 0.000000 0.000000 -0.000000 0.000000 0.000000 0.000000 0.000000 0.000000 -0.000000 0.000000 0.000000 -0.000000 0.000000 0.000000 -0.000000 0.000000 0.000000 -0.000000 0.000000 0.000000 0.000000 0.000000 0.000000 0.000000 0.000000 0.000000 -0.000000 0.000000 0.000000 -0.000000 0.000000 0.000000 -0.000000 0.000000 0.000000 -0.000000 0.000000 0.000000 0.000000 0.000000 0.000000 0.000000 0.000000 0.000000 -0.000000 0.000000 -27.606489 -0.000000 0.000000 0.000000 -0.000000 0.000000 0.000000 0.000000 0.000000 0.000000 -0.000000 0.000000 -27.606489 -0.000000 0.000000 0.000000 -0.000000 0.000000 0.000000 0.000000 0.000000 0.000000
74.181224 69.459698 277.793968 0.133183 0.072072 27.431799 -0.151411 -0.002612 -27.431887 -0.000000 0.000000 0.000000 -0.997906 -3.851254 -2.198173 0.000000 0.000000 0.000000 1.948020 0.771539 -0.165831 -1.945958 -0.776727 0.139522 -0.479782 -0.821223 0.542108 -3.198833 4.501773 -1.217486 0.000000 0.000000 0.000000 0.000000 0.000000 0.000000 0.990307 -0.755627 0.218487 -0.987505 0.759285 -0.205413 -0.917653 1.191506 -0.252732 3.475810 0.307618 -0.054265 0.000000 0.000000 0.000000 0.000000 0.000000 0.000000 -0.151411 -0.002612 -27.431887 -0.000000 0.000000 0.000000 0.218362 0.684929 -0.412017 0.000000 0.000000 0.000000 -0.151411 -0.002612 -27.431887 -0.000000 0.000000 0.000000 -0.000000 0.000000 0.000000 0.000000 0.000000 0.000000
74.392497 69.436119 277.743534 0.193439 0.147826 27.323682 -0.239711 -0.042541 -27.324020 -0.000000 0.000000 0.000000 -2.276033 -7.398304 -4.163253 0.000000 0.000000 0.000000 3.842815 1.513103 -0.351489 -3.834836 -1.533237 0.249393 -0.864012 -2.043107 1.077804 -7.646785 9.723849 -2.141963 0.000000 0.000000 0.000000 0.000000 0.000000 0.000000 1.902416 -1.318289 0.363664 -2.051323 2.568425 -0.677851 -1.520730 0.616502 -0.080942 6.665334 1.008117 -0.137151 0.000000 0.000000 0.000000 0.000000 0.000000 0.000000 -0.239711 -0.042541 -27.324020 0.934322 -0.777010 0.063434 -0.491420 2.205511 -0.874069 0.000000 0.000000 0.000000 -1.052255 0.466056 -27.301678 0.955306 -0.079213 -0.018679 -0.000000 0.000000 0.000000 0.000000 0.000000 0.000000
74.540096 69.403408 277.691662 0.180906 0.227252 27.285264 -0.264955 -0.119034 -27.285898 0.587891 0.777118 0.038207 -4.415121 -11.415196 -6.010247 0.000000 0.000000 0.000000 5.025441 1.419531 -0.516260 -5.597631 -2.239850 0.329039 -1.142931 -3.668054 1.603568 -13.017669 14.958761 -2.460580 0.000000 0.000000 0.000000 0.000000 0.000000 0.000000 2.144615 -2.465363 0.419379 -2.938590 3.287999 -0.803780 -2.060588 0.400863 -0.075776 9.458424 2.036410 -0.302035 0.000000 0.000000 0.000000 0.000000 0.000000 0.000000 -0.264955 -0.119034 -27.285898 1.282500 -1.025788 0.093815 -0.611772 3.248329 -1.296822 0.000000 0.000000 0.000000 -1.358048 0.527157 -27.248805 1.267644 -0.073936 -0.032382 -0.000000 0.000000 0.000000 0.000000 0.000000 0.000000
74.624021 69.361565 277.638355 0.095729 0.310336 27.318532 0.331460 0.376186 -27.314216 0.449805 0.194754 0.042871 -6.282168 -14.581555 -7.605500 0.000000 0.000000 0.000000 6.515744 1.804702 -0.663679 -7.158954 -2.864322 0.380968 -1.307514 -5.691779 2.117901 -18.524532 19.328112 -2.079611 0.000000 0.000000 0.000000 0.000000 0.000000 0.000000 2.812629 -2.854437 0.414527 -3.737987 3.624908 -0.794913 -2.442943 -0.177768 -0.038653 11.754773 3.322216 -0.581526 0.000000 0.000000 0.000000 0.000000 0.000000 0.000000 -0.227479 -0.231790 -27.319251 1.568837 -1.196137 0.122812 -0.667532 4.255405 -1.709177 0.000000 0.000000 0.000000 -1.516407 0.476200 -27.266645 1.470053 -0.038752 -0.049360 -0.000000 0.000000 0.000000 0.000000 0.000000 0.000000
74.644272 69.310590 277.583611 -0.061942 0.397067 27.424306 0.460759 0.389307 -27.421899 0.519835 0.227902 0.046433 -8.328193 -17.455853 -9.014393 0.000000 0.000000 0.000000 7.787152 2.100492 -0.780852 -8.443043 -3.374632 0.410379 -1.349763 -8.101002 2.621492 -23.223949 22.327097 -1.230657 0.000000 0.000000 0.000000 0.000000 0.000000 0.000000 3.455393 -3.024686 0.325042 -4.449126 3.574865 -0.655356 -2.662644 -1.119921 0.032132 13.470707 4.802532 -0.983705 0.000000 0.000000 0.000000 0.000000 0.000000 0.000000 -0.127900 -0.380974 -27.424516 1.801454 -1.293000 0.150419 -0.667971 5.223669 -2.110168 0.000000 0.000000 0.000000 -1.527929 0.313693 -27.356020 1.562666 0.026378 -0.069678 -0.000000 0.000000 0.000000 0.000000 0.000000 0.000000
74.619531 69.224297 277.514897 -0.293251 0.509125 27.589003 0.580531 0.376801 -27.590196 0.607435 0.236132 0.049454 -11.527186 -20.677942 -10.332094 0.000000 0.000000 0.000000 9.117032 2.370067 -0.884870 -9.732836 -3.833138 0.421959 -1.455022 -11.297711 3.356568 -25.122813 24.217036 -0.558371 0.000000 0.000000 0.000000 0.000000 0.000000 0.000000 4.194531 -3.311514 0.316234 -5.263450 3.564513 -0.546598 -3.166713 -2.238096 0.060891 14.878258 6.048526 -1.258664 0.000000 0.000000 0.000000 0.000000 0.000000 0.000000 0.024123 -0.587044 -27.587577 1.965735 -1.218012 0.181830 0.065133 7.530711 -3.676411 0.000000 0.000000 0.000000 -1.432732 -0.021289 -27.491571 1.553497 0.170536 -0.106052 -0.287499 0.259508 1.079518 0.000000 0.000000 0.000000
74.569429 69.119633 277.371207 -0.537765 0.719325 27.709645 0.695785 0.275529 -27.711144 0.593970 0.208683 0.044512 -14.690046 -23.290751 -11.275849 0.000000 0.000000 0.000000 9.664079 2.291273 -0.869571 -10.170642 -3.903921 0.413844 -1.556637 -14.034882 4.022182 -27.155267 26.212673 0.283565 0.000000 0.000000 0.000000 0.000000 0.000000 0.000000 4.783499 -3.066056 0.058717 -5.707335 2.713374 -0.152761 -4.104550 -4.152402 0.066020 15.605915 8.661280 -2.353534 0.000000 0.000000 0.000000 0.000000 0.000000 0.000000 0.141645 -0.886873 -27.705173 2.085644 -0.903082 0.225571 1.037484 9.841773 -5.495001 0.000000 0.000000 0.000000 -1.392873 -0.559999 -27.562332 1.511594 0.419923 -0.167757 -0.423109 0.319955 1.555739 0.000000 0.000000 0.000000
74.351569 69.058439 277.343936 -0.977863 0.759609 28.079251 0.942019 0.205744 -28.082475 0.581789 0.245711 0.034842 -17.032992 -25.134554 -11.943339 0.000000 0.000000 0.000000 9.151958 1.806611 -0.717503 -9.461166 -3.529948 0.395479 -0.952303 -17.590897 4.372529 -27.518695 24.314628 0.698662 0.000000 0.000000 0.000000 0.000000 0.000000 0.000000 5.287976 -2.372178 -0.413057 -5.630257 0.690361 0.628502 -3.292184 -5.787099 0.257662 13.673234 9.904773 -2.476276 0.000000 0.000000 0.000000 0.000000 0.000000 0.000000 0.505349 -1.130407 -28.067784 2.139955 -0.804421 0.241652 -0.268184 7.743376 -3.302509 0.000000 0.000000 0.000000 -0.822629 -1.035508 -27.914269 1.217836 0.537421 -0.184327 -0.550088 0.347115 1.987415 0.000000 0.000000 0.000000
74.014204 69.038761 277.421657 -1.538478 0.666180 28.740380 1.261881 0.129893 -28.746727 0.593735 0.319231 0.025054 -18.061867 -26.232843 -12.572573 0.000000 0.000000 0.000000 9.354560 1.968717 -0.748500 -9.421368 -3.770400 0.425910 0.658039 -21.600449 4.170481 -30.137939 26.188353 3.352101 0.000000 0.000000 0.000000 0.000000 0.000000 0.000000 5.921797 -1.375630 -1.043326 -6.011662 -0.446918 1.191876 -1.769681 -8.541710 0.828191 13.120326 10.842877 -2.222072 0.000000 0.000000 0.000000 0.000000 0.000000 0.000000 1.559426 -1.994515 -28.641705 1.130030 -0.392162 0.143612 -0.204779 7.678300 -2.959998 0.000000 0.000000 0.000000 0.118198 -1.431981 -28.583575 0.747794 0.530537 -0.161334 -0.652816 0.339923 2.323555 0.000000 0.000000 0.000000
73.623429 69.056205 277.562340 -2.146884 0.482779 29.495089 1.623509 0.053852 -29.506472 0.614158 0.395545 0.015862 -18.198115 -26.860344 -13.181130 0.000000 0.000000 0.000000 9.571482 1.968976 -0.724617 -9.393796 -3.784724 0.428652 1.500035 -23.755717 4.136742 -32.044688 27.290827 4.989712 0.000000 0.000000 0.000000 0.000000 0.000000 0.000000 6.523404 -0.146834 -1.779932 -6.812245 -2.983917 2.094604 2.972060 -10.714550 1.782790 9.089093 13.954360 -3.324820 0.000000 0.000000 0.000000 0.000000 0.000000 0.000000 2.809681 -2.267750 -29.108950 0.059744 -0.756968 -0.181872 0.155841 7.819993 -2.745222 0.000000 0.000000 0.000000 1.631442 -1.476842 -29.465015 -0.000000 0.000000 0.000000 -0.704650 0.315397 2.484104 0.000000 0.000000 0.000000
73.203368 69.123958 277.779493 -2.761911 0.205500 30.303836 1.947164 -0.001023 -30.327330 0.665922 0.487556 0.007821 -17.278547 -27.143060 -13.995084 0.000000 0.000000 0.000000 9.851855 2.070310 -0.720382 -9.405870 -3.833733 0.434141 1.945864 -25.188395 4.221654 -32.201913 28.743975 5.843817 0.000000 0.000000 0.000000 0.000000 0.000000 0.000000 7.077727 1.165927 -2.526950 -7.145594 -5.034690 2.871861 7.933066 -13.312769 3.096062 5.858836 17.399319 -4.513191 0.000000 0.000000 0.000000 0.000000 0.000000 0.000000 4.141063 -2.384812 -29.588380 -0.062451 -0.765183 -0.374200 -0.304302 7.427407 -2.872196 0.000000 0.000000 0.000000 2.281493 -1.570492 -30.267607 -0.000000 0.000000 0.000000 -0.697079 0.265101 2.436807 0.000000 0.000000 0.000000
